<!--?xml version="1.0" encoding="utf-8"?-->
<!-- Svg Vector Icons : http://www.onlinewebfonts.com/icon -->

<svg version="1.1" xmlns="http://www.w3.org/2000/svg" xmlns:xlink="http://www.w3.org/1999/xlink" x="0px" y="0px" viewBox="0 0 256 256" enable-background="new 0 0 256 256" xml:space="preserve">
<metadata> Svg Vector Icons : http://www.onlinewebfonts.com/icon </metadata>
<g><g><path fill="#ffffff" data-title="Layer 0" xs="0" d="M128,246c-65.1,0-118-52.9-118-118C10,62.9,62.9,10,128,10c65.1,0,118,52.9,118,118C246,193.1,193.1,246,128,246L128,246z M128,21.2C69.1,21.2,21.2,69.1,21.2,128c0,58.9,47.9,106.8,106.8,106.8c58.9,0,106.8-47.9,106.8-106.8C234.8,69.1,186.9,21.2,128,21.2L128,21.2z"/><path fill="#ffffff" data-title="Layer 1" xs="1" d="M148.3,67.4c2.5,0.5,4.6,1.9,6.2,4s2.6,4.7,2.7,7.9c0,1,0,2.5,0.2,4.6c0.1,2,0.2,4.2,0.2,6.5c0,2.3-0.1,4.3-0.2,6.2s-0.5,3-0.9,3.4c-0.6,0.7-1.3,1.1-1.9,1.1c-0.6,0-0.9,0.2-0.9,0.9c0,0.3-0.1,1.5-0.2,3.4c-0.2,2-0.6,4.6-1.4,8.1c-0.4,1.8-1.1,3.5-1.9,4.9c-0.8,1.5-1.6,2.8-2.5,4c-1.1,1.3-2.2,2.5-3.3,3.6c-0.1,1.4-0.2,2.7-0.2,4v3.4c0,1.2,0,2.1,0.2,2.7c0.1,1.3,0.4,2.2,1,2.7c0.5,0.5,1.6,1,3.3,1.5c0.5,0.2,1.5,0.5,2.9,1s3.1,1,5,1.7c2,0.7,4,1.4,6.1,2.2c2.1,0.7,4.1,1.5,6.1,2.2c1.9,0.7,3.7,1.3,5.2,2c1.5,0.6,2.6,1.1,3.4,1.4c2.2,1.1,3.6,2.2,4.3,3.4c0.7,1.2,1.3,2.7,1.9,4.6c0.2,1,0.5,2.7,0.9,5.3c0.4,2.6,0.8,5.3,1.2,8.1c0.4,2.8,0.8,5.5,1.1,7.9c0.3,2.5,0.5,4,0.6,4.7c0.1,1.4-0.1,2.6-0.7,3.6c-0.6,1-2,1.7-4.1,2.3c-1.8,0.4-4.5,0.9-8,1.4s-7.6,0.9-12.2,1.4c-4.6,0.4-9.8,0.8-15.3,1.1c-5.6,0.3-11.4,0.4-17.6,0.4c-6.2,0-12.1-0.1-17.7-0.3c-5.6-0.2-10.8-0.5-15.5-0.9c-4.7-0.4-8.9-0.8-12.5-1.3c-3.6-0.5-6.5-1-8.5-1.5c-0.4-0.1-1-0.3-1.6-0.7c-0.7-0.3-1.3-0.7-1.9-1.2c-0.6-0.5-1.1-1.1-1.4-1.8c-0.3-0.7-0.4-1.5-0.3-2.4c0.1-0.7,0.4-2.5,0.9-5.1c0.5-2.6,1.1-5.5,1.7-8.5c0.7-3,1.3-5.9,1.8-8.5s0.9-4.3,1.1-4.9c0.4-1.3,1.1-2.7,1.9-4c0.8-1.4,2.2-2.9,4.1-4.4c1-0.7,2.8-1.6,5.3-2.4c2.6-0.9,5.3-1.7,8.1-2.4c2.8-0.7,5.5-1.4,7.9-1.9c2.5-0.5,4.1-0.9,4.9-1.1c1.6-0.3,3.1-0.7,4.3-1.2c1.3-0.5,1.9-1.2,1.9-2v-9.4c-1.2-1-2.3-2-3.4-3.3c-1-1-2-2.1-2.9-3.5c-1-1.3-1.8-2.8-2.6-4.3c-1.5-2.9-2.5-5.6-2.9-8c-0.4-2.4-0.7-3.9-0.8-4.3c-0.1-0.4-0.5-0.8-1.2-1.1c-0.7-0.3-1.2-0.8-1.5-1.7c-0.9-1.8-1.3-3.8-1.2-5.8c0-2,0.2-5,0.4-8.8c0.3-3.8,0.9-7.4,1.9-10.9c0.9-3.5,2.9-6.6,6.1-9.6c1.6-1.4,3.8-2.6,6.5-3.5s5.5-1.6,8.3-2c2.8-0.4,5.5-0.7,8-0.7c2.6,0,4.5,0.2,5.8,0.5c1.4,0.4,2.5,0.9,3.4,1.4c0.9,0.5,1.5,0.9,2,1.4c0.5,0.4,0.9,0.8,1.2,1.2c0.3,0.4,0.7,0.7,1,0.9c0.5,0.4,1.3,0.6,2.1,0.4C144.6,66.9,146.1,67,148.3,67.4z M133.3,156.3l4.4,16.9l7.1-19.1l-6.8-4.9L133.3,156.3z M121.6,148.8l-6.5,5.2l7.3,19.1l3.9-17L121.6,148.8z M179.4,85.4c1.5,0.2,2.7,1,3.7,2.3c0.9,1.3,1.4,2.9,1.5,4.7c0,0.5,0,1.4,0.2,2.7c0.1,1.3,0.2,2.5,0.2,3.8s0,2.5-0.2,3.7c-0.1,1.1-0.3,1.8-0.5,2c-0.4,0.4-0.8,0.6-1.2,0.6s-0.6,0.1-0.6,0.6c0,0.2,0,0.9-0.1,2s-0.4,2.8-0.9,4.9c-0.2,1.1-0.5,2-1,2.9c-0.4,0.9-0.9,1.6-1.5,2.3c-0.5,0.7-1.2,1.5-2,2.1c-0.1,0.9-0.2,1.7-0.2,2.4v3.7c0.1,0.7,0.3,1.3,0.7,1.6c0.3,0.3,1,0.6,2,0.8c0.4,0.1,1.5,0.4,3.1,1c1.6,0.5,3.4,1.2,5.3,1.9c1.9,0.7,3.7,1.3,5.3,2c1.6,0.6,2.7,1.1,3.4,1.4c1.3,0.7,2.2,1.3,2.7,2c0.5,0.7,0.8,1.6,1.1,2.8c0.1,0.5,0.3,1.6,0.5,3.1c0.2,1.5,0.4,3.1,0.7,4.9s0.4,3.3,0.7,4.7c0.2,1.4,0.3,2.3,0.3,2.7c0.1,0.9,0,1.6-0.4,2.2c-0.4,0.6-1.2,1-2.5,1.2c-1.1,0.2-2.5,0.5-4.2,0.8c-1.7,0.3-4,0.6-6.8,0.8c-0.2-1.3-0.5-2.5-1-3.7c-0.3-1.1-0.7-2.2-1.1-3.4s-1-2.2-1.6-3.1c-1.2-1.6-2.4-2.9-3.7-3.9c-1.3-1-2.6-1.8-3.9-2.4s-2.6-1.2-3.9-1.5c-1.3-0.4-2.6-0.8-3.9-1.2c-5.5-2-9.9-3.3-13.3-4c-3.3-0.7-5.3-1.4-5.7-2c-0.2-0.3-0.4-0.7-0.4-1.1c0-0.4-0.1-0.9-0.1-1.5c0-0.5,0-1.1,0.2-1.8c1.5-0.4,2.7-0.7,3.4-0.8c0.7-0.1,1.3-0.2,1.8-0.3c0.9-0.2,1.7-0.5,2.4-0.7c0.7-0.3,1.1-0.7,1.1-1.2v-5.7l-0.3-0.2l-0.7-0.3c-0.2-0.1-0.4-0.4-0.7-0.8c0.7-1.4,1.3-3.1,2-5c0.5-1.7,1.1-3.8,1.7-6.3c0.6-2.5,1.1-5.5,1.5-8.9c0.3-2.7,0.5-5.1,0.7-7.3c0.1-2.2,0.2-4,0.2-5.7v-5c1.3-0.2,2.7-0.3,4.1-0.3c1.5,0,2.6,0.1,3.5,0.3c1.8,0.5,2.9,1.1,3.3,1.6c0.4,0.5,0.8,1,1.2,1.3c0.4,0.2,0.9,0.3,1.4,0.2C177.2,85.1,178.1,85.2,179.4,85.4L179.4,85.4z M171.1,137.3l1.1,4.4l2.9,1l2.3-5.8l-3.4-2.9L171.1,137.3z M162.7,134.4l-2.7,2.7l0.2,0.7l5,1.5l0.7-1.8L162.7,134.4z M90.7,81.9c-1.7-0.2-3.5-0.3-5.2-0.2c-1.5,0.1-3.2,0.4-4.9,0.8c-1.8,0.4-3.4,1.2-4.9,2.3c-1.3,0.9-2.3,1.9-3.1,3.1c-0.7,1.2-1.3,2.4-1.7,3.7c-0.4,1.3-0.6,2.4-0.7,3.5c-0.1,1.1-0.2,2-0.2,2.6c-0.1,1.4-0.2,2.7-0.3,3.8c-0.1,1.1,0,2.1,0.2,3c0.2,0.9,0.4,1.5,0.5,1.8c0.1,0.3,0.3,0.6,0.7,0.8c0.3,0.2,0.6,0.4,0.8,0.4c0.2,0,0.4,0.8,0.7,2.2c0.1,1.4,0.5,2.8,1.1,4.1s1.2,2.5,1.9,3.3c0.3,0.5,0.7,1.1,1.2,1.5c0.5,0.5,0.9,1,1.4,1.5c0.4,0.5,1,1.1,1.6,1.6v2v2.7c-0.1,0.7-0.4,1.2-0.7,1.6c-0.4,0.4-1.1,0.7-2.2,1c-0.5,0.1-1.4,0.3-2.7,0.7c-1.3,0.3-2.6,0.7-4,1.1c-1.5,0.4-2.9,0.8-4.4,1.2c-1.5,0.4-2.6,0.8-3.5,1.1c-3.1,1.5-5,4.1-5.7,7.8c-0.4,1.7-0.9,3.9-1.5,6.5c-0.5,2.6-0.9,4.4-1.1,5.5s-0.2,2.2,0.1,3.4c0.3,1.2,1.2,2,2.7,2.3c0.7,0.2,1.7,0.4,2.8,0.5c1.1,0.1,2.2,0.3,3.3,0.5c1.2,0.2,2.4,0.4,3.7,0.5c0.2-1.3,0.5-2.6,1-3.9c0.3-1.2,0.8-2.4,1.4-3.6c0.6-1.2,1.3-2.3,2.2-3.4c0.9-1,1.9-1.9,3.2-2.8c1.3-0.9,2.5-1.8,3.7-2.7c1.3-1,2.7-1.9,4.2-2.7l-1.6-4l3.6-2.7l3.7,4.2l2-0.5c0.2,0,0.5-0.1,1-0.3c0.2-0.1,0.4-0.2,0.7-0.2l3.1-3.6L97,136c0.5-0.1,1-0.2,1.5-0.3c0.4-0.1,0.9-0.2,1.5-0.3l1.6-0.3c1.2-0.2,2.2-0.4,3-0.7s1.3-0.7,1.4-1.6c0-0.4,0-0.8,0.1-1.1c0-0.3,0.1-0.5,0.1-0.7v-0.5c-1-0.3-1.9-0.7-2.7-1l-2.3-0.6c-0.7-0.2-1.3-0.4-1.8-0.7c-0.9-0.3-1.3-0.8-1.5-1.4c-0.1-0.6-0.2-1.4-0.2-2.4v-1.6c0-0.5,0-1.1,0.2-1.6c0-0.5,0-1.2,0.2-2c-0.9-1.3-1.7-2.7-2.6-4.2c-0.7-1.3-1.5-2.8-2.2-4.5c-0.7-1.7-1.3-3.4-1.7-5.3c-0.5-2.5-0.9-5.1-1.1-7.9c-0.2-2.8-0.3-5.3-0.2-7.6C90.2,87.1,90.4,84.5,90.7,81.9L90.7,81.9z"/></g></g>
</svg>